<?xml version="1.0" standalone="no"?>
<!DOCTYPE svg PUBLIC "-//W3C//DTD SVG 20010904//EN"
 "http://www.w3.org/TR/2001/REC-SVG-20010904/DTD/svg10.dtd">
<svg version="1.0" xmlns="http://www.w3.org/2000/svg"
 width="512.000000pt" height="512.000000pt" viewBox="0 0 512.000000 512.000000"
 preserveAspectRatio="xMidYMid meet">
<metadata>
Created by potrace 1.11, written by Peter Selinger 2001-2013
</metadata>
<g transform="translate(0.000000,512.000000) scale(0.100000,-0.100000)"
fill="#000000" stroke="none">
<path d="M564 4964 c-27 -31 -50 -60 -51 -63 -2 -8 146 -136 155 -135 4 1 29
27 56 58 l49 56 -24 20 c-13 11 -38 33 -54 48 -17 15 -42 37 -56 50 l-26 22
-49 -56z"/>
<path d="M4470 4988 c-19 -17 -55 -49 -79 -70 l-44 -39 25 -27 c14 -15 38 -41
54 -59 l30 -31 35 31 c20 18 56 49 79 69 l43 37 -31 38 c-16 21 -41 48 -54 60
l-23 22 -35 -31z"/>
<path d="M1675 4958 c-33 -17 -61 -32 -63 -33 -3 -3 66 -145 74 -154 6 -6 145
62 142 69 -2 3 -19 38 -37 78 -19 39 -39 72 -45 72 -6 -1 -38 -15 -71 -32z"/>
<path d="M3327 4915 c-20 -42 -37 -77 -37 -79 0 -5 129 -66 138 -66 8 0 85
150 80 155 -10 7 -130 65 -136 65 -4 0 -24 -34 -45 -75z"/>
<path d="M2480 4880 l0 -80 80 0 80 0 0 80 0 80 -80 0 -80 0 0 -80z"/>
<path d="M837 4725 c-26 -30 -47 -58 -47 -63 0 -6 33 -39 73 -73 39 -35 74
-66 77 -69 3 -3 41 -36 85 -75 44 -38 82 -72 85 -75 3 -3 41 -36 85 -75 44
-38 82 -72 85 -75 3 -3 55 -49 116 -102 l111 -97 29 32 c83 90 80 85 58 105
-10 9 -91 80 -179 157 -88 77 -165 144 -171 150 -45 41 -161 142 -178 156 -12
9 -46 40 -76 69 -30 28 -66 60 -80 70 l-26 18 -47 -53z"/>
<path d="M4170 4724 c-36 -31 -96 -84 -135 -119 -38 -34 -110 -98 -160 -141
-49 -43 -92 -81 -95 -84 -3 -3 -59 -52 -125 -109 -66 -58 -126 -110 -134 -117
-11 -10 -8 -19 22 -51 19 -21 43 -48 54 -60 l18 -22 76 67 c42 37 107 94 144
127 37 33 73 65 79 70 6 6 47 41 91 80 44 38 94 82 110 98 17 15 74 64 127
110 53 45 97 84 97 87 0 3 -23 31 -52 62 l-52 58 -65 -56z"/>
<path d="M1835 4638 c-33 -17 -61 -32 -63 -33 -3 -3 226 -465 234 -475 3 -2
36 12 75 31 l70 34 -118 238 c-65 130 -122 237 -128 236 -5 0 -37 -14 -70 -31z"/>
<path d="M3087 4433 c-109 -217 -117 -237 -100 -247 36 -21 123 -59 127 -55 9
11 237 471 234 473 -21 14 -128 66 -134 66 -5 0 -62 -106 -127 -237z"/>
<path d="M2480 4520 l0 -120 80 0 80 0 0 120 0 120 -80 0 -80 0 0 -120z"/>
<path d="M160 4164 c-14 -37 -24 -70 -24 -73 1 -3 36 -20 77 -38 l75 -32 15
37 c9 20 23 54 31 75 l16 37 -27 12 c-16 6 -41 17 -58 24 -75 32 -78 31 -105
-42z"/>
<path d="M4848 4202 c-36 -15 -69 -30 -72 -33 -11 -11 51 -144 65 -141 8 2 44
15 80 29 l67 26 -30 73 c-17 41 -33 74 -37 73 -3 0 -36 -12 -73 -27z"/>
<path d="M2435 4139 c-114 -39 -214 -137 -251 -246 -10 -29 -24 -53 -32 -53
-7 0 -34 12 -60 28 -70 40 -105 50 -180 47 -170 -5 -301 -132 -308 -299 -3
-64 3 -89 40 -176 5 -12 -5 -23 -36 -40 -99 -54 -159 -152 -164 -265 -3 -80
14 -138 58 -203 32 -47 113 -104 169 -120 27 -8 6 -10 -98 -11 l-133 -1 -1
-285 c-1 -157 -1 -314 -1 -350 0 -36 0 -484 1 -995 l1 -930 993 0 c969 1 993
1 1051 21 74 25 134 66 179 122 35 42 73 111 85 151 3 11 8 184 9 383 l4 363
239 2 239 3 -125 340 c-69 187 -129 349 -134 360 -5 11 -29 76 -54 145 -25 69
-57 157 -71 195 -14 39 -49 133 -77 210 -28 77 -54 149 -59 160 -5 11 -15 38
-22 60 l-14 40 -134 5 c-74 3 -125 7 -113 8 39 4 123 53 159 94 80 87 106 223
65 331 -24 65 -104 154 -157 176 l-30 12 23 57 c63 153 -3 330 -151 406 -53
27 -70 31 -145 31 -92 0 -136 -15 -210 -75 l-36 -28 -2 27 c-4 48 -70 166
-118 210 -106 98 -267 134 -399 90z"/>
<path d="M485 4046 c-41 -93 -58 -78 215 -188 135 -55 252 -102 260 -105 27
-11 214 -85 265 -104 28 -11 60 -25 72 -31 29 -14 32 -11 64 70 l27 67 -432
172 c-237 95 -435 173 -439 173 -4 0 -19 -24 -32 -54z"/>
<path d="M4290 3979 c-162 -66 -306 -124 -320 -130 -165 -64 -235 -93 -238
-94 -5 -4 53 -145 60 -145 9 0 494 192 545 216 17 7 34 14 38 14 4 0 21 7 38
15 18 7 79 33 137 55 127 51 122 47 110 68 -5 9 -18 40 -29 67 -10 28 -25 51
-32 52 -8 1 -147 -53 -309 -118z"/>
<path d="M160 3200 l0 -80 120 0 120 0 0 80 0 80 -120 0 -120 0 0 -80z"/>
<path d="M560 3200 l0 -80 320 0 320 0 0 80 0 80 -320 0 -320 0 0 -80z"/>
<path d="M3920 3200 l0 -80 320 0 320 0 0 80 0 80 -320 0 -320 0 0 -80z"/>
<path d="M4720 3200 l0 -80 120 0 120 0 0 80 0 80 -120 0 -120 0 0 -80z"/>
</g>
</svg>
